<svg width="35" height="39" viewBox="0 0 35 39" fill="none" xmlns="http://www.w3.org/2000/svg">
<path d="M0.500567 32.6802H1.74182V35.6789C1.74231 35.9473 1.96037 36.1645 2.22886 36.1639C2.23201 36.1639 2.23525 36.1638 2.2384 36.1638H16.4279C18.3984 37.9812 20.9789 38.9933 23.6595 39C29.5464 39 34.3357 34.2142 34.3357 28.327C34.3399 22.4358 29.5677 17.6566 23.6765 17.6523C22.085 17.6512 20.5134 18.0062 19.077 18.6912V18.0774C19.0742 17.8025 18.8491 17.5818 18.5741 17.5845H17.3352V15.0962H18.5741C18.8489 15.0962 19.077 14.8318 19.077 14.5571V11.0367C19.0751 10.7598 18.851 10.5359 18.5741 10.5343H17.3352V8.04599H18.5741C18.8559 8.03114 19.0768 7.79848 19.077 7.51631V3.99602C19.0758 3.71733 18.8528 3.49023 18.5741 3.48409H17.3352V0.475651C17.3326 0.210481 17.1156 -0.00243513 16.8505 5.31749e-05C16.8457 0.000136118 16.8409 0.000219062 16.8362 0.000384949H0.500567C0.234816 -0.0101489 0.0108689 0.196795 0.000335111 0.462546C0.000169224 0.466859 8.63041e-05 0.471255 3.36062e-06 0.475568V3.99594C0.00265755 4.26559 0.22337 4.48207 0.493019 4.4795C0.495508 4.4795 0.498079 4.47942 0.500567 4.47933H1.74182V7.05058H0.500567C0.225776 7.05058 3.36062e-06 7.24135 3.36062e-06 7.51623V11.0366C0.00182812 11.3106 0.225444 11.5314 0.499572 11.5295H0.500567H1.74182V14.1008H0.500567C0.225776 14.1008 3.36062e-06 14.2821 3.36062e-06 14.557V18.0773C0.00108163 18.3536 0.2242 18.5777 0.500567 18.5797H1.74182V21.068H0.500567C0.219223 21.0829 -0.000991961 21.3158 3.36062e-06 21.5975V25.1178C0.000252191 25.3961 0.222375 25.6234 0.500567 25.6299H1.74182V28.1182H0.500567C0.220965 28.1285 -0.000328413 28.3584 3.36062e-06 28.6382V32.1585C-0.0004943 32.4387 0.220633 32.6691 0.500567 32.6802ZM2.73714 32.6802H13.9C14.3042 33.581 14.8357 34.4189 15.4783 35.1685H2.73714V32.6802ZM16.4951 21.8259L18.0965 23.4272C16.9668 24.7039 16.3132 26.3319 16.2468 28.0354H13.9834C14.0518 25.7319 14.9429 23.529 16.4951 21.8259ZM23.6595 21.9064C27.2072 21.9065 30.0832 24.7825 30.0831 28.3302C30.083 31.878 27.207 34.754 23.6593 34.7539C20.1116 34.7538 17.2357 31.8778 17.2357 28.3301C17.2396 24.7841 20.1134 21.9104 23.6595 21.9064ZM18.7797 33.9137C19.9313 34.9242 21.3685 35.5519 22.8924 35.7098V37.9807C20.7676 37.8127 18.7583 36.9457 17.1783 35.515L18.7797 33.9137ZM23.8877 35.7454C25.6146 35.6935 27.2688 35.0381 28.5624 33.8931L30.1638 35.4945C28.4436 37.0623 26.2145 37.955 23.8877 38.0082V35.7454ZM29.2635 33.1867C30.2772 32.0216 30.9003 30.5682 31.0453 29.0307H33.3148C33.1608 31.1688 32.2988 33.1946 30.8649 34.788L29.2635 33.1867ZM31.0721 28.0354C31.0062 26.3426 30.3604 24.7238 29.2431 23.4504L30.8444 21.8491C32.3841 23.5493 33.2674 25.7426 33.3355 28.0354H31.0721ZM28.5392 22.7466C27.2487 21.614 25.604 20.9663 23.8877 20.9149V18.6521C26.2038 18.7051 28.4235 19.5901 30.1406 21.1453L28.5392 22.7466ZM22.8924 20.9506C21.379 21.1072 19.9508 21.727 18.8029 22.7256L17.2017 21.1246C18.7781 19.7059 20.7782 18.8465 22.8924 18.6793V20.9506ZM16.2735 29.0307C16.4197 30.5787 17.0503 32.0411 18.0757 33.2099L16.4744 34.8113C15.0285 33.2144 14.1588 31.1793 14.0041 29.0307H16.2735ZM0.995325 0.99579H16.3399V3.48409H0.995325V0.99579ZM2.73714 4.47942H18.0817V7.05066H2.73714V4.47942ZM0.995325 8.04599H16.3399V10.5343H0.995325V8.04599ZM2.73714 11.5296H18.0817V14.1009H2.73714V11.5296ZM0.995325 15.0962H16.3399V17.5845H0.995325V15.0962ZM2.73714 18.5798H18.0817V19.2338C17.2589 19.7584 16.4975 20.3737 15.8118 21.0681H2.73714V18.5798ZM0.995325 22.0634H14.9984C14.4468 22.8632 13.9935 23.7265 13.6484 24.6347H0.995325V22.0634ZM2.73714 25.63H13.3334C13.121 26.4431 13.0043 27.2782 12.9857 28.1183H2.73714V25.63ZM0.995325 29.1136H13.0138C13.077 29.9879 13.2457 30.8512 13.5162 31.6849H0.995325V29.1136Z" fill="white" fill-opacity="0.2"/>
</svg>
