<svg width="43" height="43" viewBox="0 0 43 43" fill="none" xmlns="http://www.w3.org/2000/svg">
<path d="M41.6982 0H38.5203C38.1723 0 37.8904 0.281936 37.8904 0.629883C37.8904 0.97783 38.1723 1.25977 38.5203 1.25977H41.6982C41.7213 1.25977 41.7402 1.27866 41.7402 1.30176V33.2108C41.7402 33.2335 41.721 33.2528 41.6982 33.2528H38.7957V5.10793C38.7957 4.39012 38.2118 3.80617 37.494 3.80617H18.3573V1.30176C18.3573 1.279 18.3765 1.25977 18.3993 1.25977H35.5808C35.9288 1.25977 36.2107 0.97783 36.2107 0.629883C36.2107 0.281936 35.9288 0 35.5808 0H18.3993C17.6815 0 17.0975 0.583943 17.0975 1.30176V3.80617H14.195C13.4772 3.80617 12.8933 4.39012 12.8933 5.10793V15.5715C12.8933 15.9195 13.1753 16.2014 13.5232 16.2014C13.871 16.2014 14.153 15.9195 14.153 15.5715V5.10793C14.153 5.08483 14.1719 5.06594 14.195 5.06594H37.494C37.5171 5.06594 37.536 5.08483 37.536 5.10793V37.017C37.536 37.0401 37.5171 37.0589 37.494 37.0589H17.9432C18.3449 36.0215 18.5658 34.8947 18.5658 33.7171C18.5658 30.3834 16.7991 27.4551 14.153 25.8178V18.511C14.153 18.163 13.871 17.8811 13.5232 17.8811C13.1753 17.8811 12.8933 18.163 12.8933 18.511V25.1652C11.7829 24.6946 10.5627 24.4342 9.28288 24.4342C4.16428 24.4342 0 28.5985 0 33.7171C0 38.8357 4.16428 43 9.28288 43C12.7283 43 15.741 41.1132 17.3428 38.3187H37.494C38.2118 38.3187 38.7957 37.7348 38.7957 37.017V34.5125H41.6982C42.4161 34.5125 43 33.9286 43 33.2108V1.30176C43 0.583943 42.4161 0 41.6982 0ZM15.3811 38.9247L13.7883 37.3319C14.4607 36.4955 14.9056 35.4693 15.0279 34.3471H17.2814C17.1456 36.0866 16.4525 37.6719 15.3811 38.9247ZM1.28446 34.3471H3.53793C3.66012 35.4693 4.10507 36.4954 4.77745 37.3318L3.18469 38.9246C2.1133 37.6719 1.42018 36.0866 1.28446 34.3471ZM3.18452 28.5098L4.77728 30.1025C4.10499 30.9389 3.66004 31.9651 3.53784 33.0873H1.28437C1.42009 31.3478 2.11321 29.7626 3.18452 28.5098ZM14.4903 27.6188L12.8976 29.2116C12.0612 28.5392 11.0349 28.0943 9.91259 27.972V25.7186C11.6522 25.8544 13.2375 26.5475 14.4903 27.6188ZM17.2814 33.0873H15.0279C14.9057 31.9651 14.4608 30.9389 13.7884 30.1024L15.3812 28.5097C16.4525 29.7625 17.1457 31.3478 17.2814 33.0873ZM9.28389 38.2373C9.28355 38.2373 9.28313 38.2372 9.28279 38.2372C9.28246 38.2372 9.28212 38.2372 9.2817 38.2372C6.79014 38.2367 4.76326 36.2098 4.76267 33.7182C4.76267 33.7179 4.76275 33.7175 4.76275 33.7171C4.76275 33.7168 4.76267 33.7164 4.76267 33.716C4.76326 31.2255 6.78837 29.1994 9.27843 29.1969C9.27985 29.1969 9.28128 29.1971 9.28271 29.1971C9.28422 29.1971 9.28556 29.1969 9.28708 29.1968C11.7765 29.1992 13.8012 31.2242 13.8029 33.7138C13.8029 33.7149 13.8027 33.7159 13.8027 33.717C13.8027 33.7181 13.8029 33.7191 13.8029 33.7202C13.8012 36.211 11.7748 38.2367 9.28389 38.2373ZM8.65291 27.9721C7.53071 28.0944 6.50451 28.5392 5.66811 29.2117L4.07534 27.6189C5.32814 26.5475 6.91343 25.8544 8.65291 25.7187V27.9721ZM5.66819 38.2226C6.50459 38.895 7.53071 39.3399 8.65291 39.4622V41.7156C6.91343 41.5799 5.32822 40.8868 4.07543 39.8155L5.66819 38.2226ZM9.91268 39.4622C11.0349 39.34 12.0611 38.895 12.8975 38.2227L14.4902 39.8155C13.2374 40.8868 11.6522 41.5799 9.91268 41.7156V39.4622Z" fill="white" fill-opacity="0.2"/>
</svg>
