<svg width="41" height="42" viewBox="0 0 41 42" fill="none" xmlns="http://www.w3.org/2000/svg">
<path d="M40.108 35.942L35.3822 9.14129C35.1515 7.83456 33.9002 6.95817 32.5925 7.18792L27.4749 8.09026L27.8331 6.05839C28.0638 4.7507 27.1875 3.49941 25.8798 3.2687L7.55223 0.0371231C6.91874 -0.0743878 6.27979 0.0672438 5.75268 0.436063C5.22588 0.804882 4.87405 1.35699 4.76222 1.99049L3.26131 10.5044C3.20235 10.8389 3.42569 11.1581 3.76022 11.2171C4.09475 11.276 4.41391 11.0527 4.47287 10.7178L5.9741 2.20422C6.02889 1.89436 6.20064 1.62455 6.45827 1.44383C6.71622 1.26342 7.02865 1.19421 7.33851 1.249L25.666 4.48058C26.3056 4.59337 26.734 5.2054 26.6212 5.84499L26.115 8.71703C26.1114 8.7337 26.1082 8.75068 26.106 8.76798L21.8958 32.6451C21.783 33.2847 21.1697 33.7128 20.5314 33.6003L2.20387 30.3687C1.56429 30.2559 1.13587 29.6439 1.24866 29.0043L4.039 13.1788C4.09796 12.8442 3.87462 12.5251 3.54008 12.4661C3.20587 12.4071 2.88608 12.6305 2.82712 12.9653L0.0367803 28.7906C-0.193612 30.0983 0.682454 31.3499 1.99014 31.5803L20.3177 34.8122C20.4587 34.8369 20.5987 34.849 20.7371 34.849C21.8833 34.8487 22.902 34.0255 23.1077 32.8585L23.8562 28.6128C23.9299 28.6182 24.0036 28.6208 24.0776 28.6208C24.2603 28.6208 24.4442 28.6044 24.6285 28.5721C25.2104 28.4695 25.7362 28.2116 26.1601 27.838L26.5155 29.8522L25.229 30.0791C24.8944 30.138 24.6708 30.4572 24.73 30.7917C24.7826 31.09 25.0422 31.3002 25.335 31.3002C25.3706 31.3002 25.4065 31.297 25.4427 31.2906L27.3345 30.9571H27.3352H27.3355L29.2273 30.6235C29.5619 30.5645 29.7852 30.2454 29.7263 29.9108C29.6673 29.576 29.3481 29.353 29.0136 29.4116L27.7274 29.6385L27.372 27.6242C27.8982 27.8299 28.4804 27.8931 29.0626 27.7905C30.767 27.49 31.9094 25.8586 31.6091 24.1542C31.4636 23.3285 31.0051 22.6091 30.3181 22.1281C29.8493 21.8 29.3123 21.61 28.7566 21.5683C28.7813 21.2937 28.7694 21.0159 28.7211 20.7416C28.6124 20.1222 28.3244 19.5563 27.8879 19.1049C27.6514 18.8607 27.2621 18.8543 27.0179 19.0904C26.7738 19.3266 26.767 19.7162 27.0032 19.9604C27.2682 20.2344 27.4432 20.5779 27.5092 20.955C27.572 21.3094 27.5338 21.6722 27.3983 22.0045C27.3118 22.2169 27.3506 22.4598 27.4992 22.6348C27.6476 22.8097 27.8812 22.8876 28.1049 22.8363C28.1308 22.8305 28.158 22.8251 28.1866 22.8203C28.6887 22.7318 29.195 22.844 29.6125 23.1362C30.0303 23.4285 30.3088 23.8662 30.3972 24.368C30.5799 25.4043 29.8855 26.396 28.8489 26.5787C28.1414 26.7036 27.4342 26.4264 26.9987 25.8558C26.8648 25.6699 26.6325 25.5664 26.3921 25.609C26.1521 25.6513 25.9695 25.8269 25.907 26.0467C25.6936 26.7328 25.1229 27.2355 24.4157 27.3605C24.3007 27.3807 24.186 27.3903 24.0722 27.39L27.2477 9.38001L32.8063 8.40012C33.4458 8.28765 34.0579 8.71607 34.1707 9.35534L38.8964 36.1555C39.0089 36.795 38.5805 37.4071 37.9412 37.5202L19.6137 40.7514C19.3038 40.8059 18.9911 40.7367 18.7334 40.5563C18.4755 40.3759 18.3034 40.1058 18.2486 39.7959L17.5539 35.852C17.495 35.5175 17.1758 35.2935 16.8413 35.3528C16.5064 35.4117 16.2831 35.7309 16.3421 36.0654L17.0368 40.0096C17.2431 41.1767 18.2615 42.0002 19.4073 41.9998C19.5457 41.9998 19.6864 41.988 19.8274 41.963L38.1549 38.7317C39.4617 38.501 40.3381 37.2494 40.108 35.942Z" fill="white" fill-opacity="0.2"/>
<path d="M34.7677 35.943C34.9952 35.9991 35.3073 35.9559 35.5229 35.8017C35.6261 35.7277 35.6831 35.6393 35.6937 35.5358L36.2715 30.869C36.2743 30.8295 36.275 30.8055 36.2734 30.7962C36.2551 30.6927 36.176 30.6149 36.0359 30.562C35.8962 30.5094 35.7604 30.4947 35.629 30.5178C35.4553 30.5482 35.363 30.6273 35.3518 30.7552L35.2493 31.7386L33.7413 32.0046L33.3138 31.1141C33.2552 30.9991 33.1283 30.9587 32.9328 30.9933C32.7794 31.0202 32.6397 31.0849 32.514 31.1871C32.3884 31.2897 32.3356 31.3983 32.3557 31.5137C32.3577 31.5239 32.367 31.548 32.3833 31.5864C34.7 36.0116 34.4437 35.8636 34.7677 35.943ZM35.2858 32.4724L35.0548 34.7411L34.0688 32.6871L35.2858 32.4724Z" fill="white" fill-opacity="0.2"/>
<path d="M9.78337 4.06621C9.77248 3.96271 9.71576 3.87395 9.61258 3.80025C9.5094 3.72655 9.38731 3.6772 9.24664 3.6522C9.10597 3.62753 8.9762 3.62945 8.85731 3.65893C8.73843 3.68809 8.65704 3.74449 8.61346 3.82812L6.47296 8.01524C6.45662 8.0537 6.44732 8.07805 6.44572 8.08798C6.42521 8.20334 6.47777 8.31229 6.6037 8.4145C6.72931 8.51704 6.86902 8.58177 7.02218 8.60869C7.21765 8.64297 7.34486 8.60292 7.4035 8.48756L7.83064 7.5974L9.33893 7.86304L9.44115 8.84645C9.45236 8.9743 9.54497 9.05345 9.71864 9.08389C9.85002 9.10728 9.98556 9.09254 10.1256 9.03967C10.2656 8.98712 10.3445 8.90894 10.3627 8.80576C10.3646 8.79646 10.364 8.77211 10.3611 8.7327L9.78337 4.06621ZM8.15845 6.91487L9.14442 4.86056L9.37578 7.12956L8.15845 6.91487Z" fill="white" fill-opacity="0.2"/>
<path d="M18.3738 25.9989C18.3584 25.8708 18.2527 25.7894 18.0572 25.7548C17.9037 25.7279 17.7506 25.741 17.5974 25.7942C17.4442 25.8471 17.3574 25.9317 17.3372 26.047C17.3353 26.0569 17.3356 26.0829 17.3378 26.1246L17.9172 30.791C17.9297 30.8849 17.9867 30.9657 18.0886 31.0339C18.3895 31.2355 18.9525 31.2666 19.098 30.9676L21.2372 26.7802C21.2532 26.744 21.2619 26.7215 21.2635 26.7122C21.2818 26.6087 21.2343 26.5084 21.1209 26.411C21.0071 26.3136 20.8847 26.2534 20.7534 26.2303C20.58 26.1995 20.4656 26.2425 20.4115 26.3588L19.9789 27.2477L18.4709 26.9817L18.3738 25.9989ZM19.7626 27.9498L18.7692 30.0025L18.5456 27.7351L19.7626 27.9498Z" fill="white" fill-opacity="0.2"/>
<path d="M30.3786 3.50295C30.4754 3.74231 30.7058 3.88779 30.9493 3.88779C31.0259 3.88779 31.1041 3.87337 31.1794 3.84293C31.4947 3.71571 31.6469 3.35683 31.5197 3.04184L30.6391 0.862564C30.5116 0.547577 30.1537 0.39537 29.838 0.522583C29.523 0.649796 29.3708 1.00868 29.498 1.32367L30.3786 3.50295Z" fill="white" fill-opacity="0.2"/>
<path d="M34.3755 3.87085C34.454 3.90418 34.5354 3.91988 34.6155 3.91988C34.8552 3.91988 35.0827 3.77921 35.1821 3.54497L36.1008 1.38107C36.2334 1.06833 36.0876 0.7072 35.7746 0.57454C35.4618 0.44188 35.1007 0.587677 34.968 0.900422L34.0497 3.064C33.9167 3.37674 34.0628 3.73787 34.3755 3.87085Z" fill="white" fill-opacity="0.2"/>
<path d="M37.1864 6.53548C37.2633 6.53548 37.3412 6.52074 37.4168 6.4903L39.5961 5.60974C39.9111 5.48253 40.0633 5.12396 39.9361 4.80898C39.8089 4.49399 39.4506 4.34178 39.135 4.46899L36.9557 5.34955C36.6407 5.47676 36.4885 5.83533 36.6157 6.15031C36.7125 6.39 36.9429 6.53548 37.1864 6.53548Z" fill="white" fill-opacity="0.2"/>
<path d="M17.3952 12.9541C16.4916 12.6645 15.4835 12.7865 14.6703 13.255C14.0662 12.5363 13.1604 12.0771 12.2122 12.0403C11.1967 12.0012 10.1976 12.4398 9.5417 13.2137C8.82168 14.0635 8.53489 15.3141 8.77522 16.5593C8.95787 17.5062 9.4241 18.4627 10.2012 19.4836C10.5709 19.9697 11.0324 20.4206 11.4787 20.8567C11.9283 21.2957 12.3529 21.7103 12.6739 22.1423C12.7944 22.3041 12.98 22.3903 13.1684 22.3903C13.2847 22.3903 13.4023 22.3576 13.5061 22.289C13.9557 21.993 14.4966 21.7485 15.0692 21.4895C15.6377 21.2326 16.2253 20.9669 16.7393 20.6366C17.8185 19.9428 18.584 19.2036 19.0794 18.3762C19.7312 17.2883 19.8895 16.0152 19.5034 14.9703C19.1519 14.0186 18.3636 13.265 17.3952 12.9541ZM18.0239 17.744C17.6279 18.405 16.9902 19.0126 16.0741 19.6012C15.636 19.8829 15.1144 20.1187 14.5623 20.3683C14.1425 20.558 13.7128 20.7522 13.3091 20.9743C13.0053 20.6276 12.6679 20.2982 12.3385 19.9761C11.9049 19.5528 11.4954 19.1526 11.1801 18.7386C10.5206 17.8722 10.1291 17.0829 9.98326 16.3261C9.81311 15.4436 9.99864 14.5775 10.4803 14.0093C10.8712 13.5479 11.4816 13.2685 12.0892 13.2685C12.1142 13.2685 12.1395 13.2688 12.1648 13.2698C12.905 13.2986 13.6308 13.7562 13.9714 14.4086C14.0598 14.5778 14.222 14.6967 14.4101 14.7297C14.5982 14.763 14.7911 14.7069 14.9321 14.5778C15.4752 14.0811 16.3141 13.8997 17.019 14.126C17.6211 14.3189 18.131 14.8059 18.3492 15.3968C18.6074 16.0954 18.4857 16.973 18.0239 17.744Z" fill="white" fill-opacity="0.2"/>
</svg>
