<svg width="33" height="33" viewBox="0 0 33 33" fill="none" xmlns="http://www.w3.org/2000/svg">
<path d="M3.40967 13.803C3.40967 14.0699 3.62603 14.2864 3.89306 14.2864H11.0543C11.3213 14.2864 11.5377 14.0699 11.5377 13.803C11.5377 13.536 11.3213 13.3196 11.0543 13.3196H3.89306C3.6261 13.3196 3.40967 13.536 3.40967 13.803Z" fill="white" fill-opacity="0.2"/>
<path d="M3.68627 18.5713C4.62765 18.5713 5.3936 17.8054 5.3936 16.8639C5.3936 15.9225 4.62765 15.1566 3.68627 15.1566C2.74488 15.1566 1.979 15.9225 1.979 16.8639C1.979 17.8054 2.74488 18.5713 3.68627 18.5713ZM3.68627 16.1234C4.09463 16.1234 4.42682 16.4556 4.42682 16.8639C4.42682 17.2722 4.09463 17.6045 3.68627 17.6045C3.27797 17.6045 2.94578 17.2723 2.94578 16.8639C2.94578 16.4556 3.27797 16.1234 3.68627 16.1234Z" fill="white" fill-opacity="0.2"/>
<path d="M3.68627 25.7049C4.62765 25.7049 5.3936 24.9391 5.3936 23.9976C5.3936 23.0562 4.62765 22.2903 3.68627 22.2903C2.74488 22.2903 1.979 23.0562 1.979 23.9976C1.979 24.9391 2.74488 25.7049 3.68627 25.7049ZM3.68627 23.2571C4.09463 23.2571 4.42682 23.5892 4.42682 23.9976C4.42682 24.406 4.09463 24.7382 3.68627 24.7382C3.27797 24.7382 2.94578 24.406 2.94578 23.9976C2.94578 23.5892 3.27797 23.2571 3.68627 23.2571Z" fill="white" fill-opacity="0.2"/>
<path d="M5.7666 20.4307C5.7666 21.3722 6.53255 22.138 7.47393 22.138C8.41531 22.138 9.18119 21.3722 9.18119 20.4307C9.18119 19.4893 8.41531 18.7234 7.47393 18.7234C6.53255 18.7234 5.7666 19.4893 5.7666 20.4307ZM8.21442 20.4307C8.21442 20.8391 7.88223 21.1713 7.47393 21.1713C7.06556 21.1713 6.73338 20.8391 6.73338 20.4307C6.73338 20.0224 7.06556 19.6902 7.47393 19.6902C7.88223 19.6902 8.21442 20.0223 8.21442 20.4307Z" fill="white" fill-opacity="0.2"/>
<path d="M11.261 15.1566C10.3197 15.1566 9.55371 15.9225 9.55371 16.8639C9.55371 17.8053 10.3197 18.5713 11.261 18.5713C12.2024 18.5713 12.9683 17.8054 12.9683 16.8639C12.9683 15.9225 12.2024 15.1566 11.261 15.1566ZM11.261 17.6045C10.8527 17.6045 10.5205 17.2723 10.5205 16.8639C10.5205 16.4556 10.8527 16.1234 11.261 16.1234C11.6693 16.1234 12.0015 16.4556 12.0015 16.8639C12.0015 17.2723 11.6693 17.6045 11.261 17.6045Z" fill="white" fill-opacity="0.2"/>
<path d="M3.68627 1.901C2.74488 1.901 1.979 2.66688 1.979 3.60833C1.979 4.54971 2.74488 5.31566 3.68627 5.31566C4.62765 5.31566 5.3936 4.54978 5.3936 3.60833C5.39366 2.66695 4.62772 1.901 3.68627 1.901ZM3.68627 4.34888C3.27797 4.34888 2.94578 4.0167 2.94578 3.60833C2.94578 3.19996 3.27797 2.86778 3.68627 2.86778C4.09463 2.86778 4.42682 3.19996 4.42682 3.60833C4.42688 4.0167 4.09463 4.34888 3.68627 4.34888Z" fill="white" fill-opacity="0.2"/>
<path d="M9.18119 7.17522C9.18119 6.23384 8.41531 5.4679 7.47393 5.4679C6.53255 5.4679 5.7666 6.23378 5.7666 7.17522C5.7666 8.11667 6.53255 8.88255 7.47393 8.88255C8.41531 8.88255 9.18119 8.11667 9.18119 7.17522ZM6.73338 7.17522C6.73338 6.76692 7.06556 6.43467 7.47393 6.43467C7.88223 6.43467 8.21442 6.76686 8.21442 7.17522C8.21442 7.58359 7.88223 7.91578 7.47393 7.91578C7.06556 7.91578 6.73338 7.58359 6.73338 7.17522Z" fill="white" fill-opacity="0.2"/>
<path d="M11.261 9.03467C10.3197 9.03467 9.55371 9.80055 9.55371 10.742C9.55371 11.6834 10.3197 12.4493 11.261 12.4493C12.2024 12.4493 12.9683 11.6834 12.9683 10.742C12.9683 9.80055 12.2024 9.03467 11.261 9.03467ZM11.261 11.4825C10.8527 11.4825 10.5205 11.1504 10.5205 10.742C10.5205 10.3336 10.8527 10.0014 11.261 10.0014C11.6693 10.0014 12.0015 10.3336 12.0015 10.742C12.0015 11.1504 11.6693 11.4825 11.261 11.4825Z" fill="white" fill-opacity="0.2"/>
<path d="M31.7713 6.86314L21.148 3.11253C20.1912 2.7748 19.1374 3.27837 18.7993 4.23548L14.9476 15.1451V1.84082C14.9476 0.825763 14.1218 0 13.1067 0H1.84082C0.825763 0 0 0.825763 0 1.84082V6.64549C0 6.91245 0.216366 7.12888 0.483392 7.12888C0.750418 7.12888 0.966785 6.91245 0.966785 6.64549V1.84082C0.966785 1.35885 1.35885 0.966785 1.84082 0.966785H13.1068C13.5887 0.966785 13.9809 1.35885 13.9809 1.84082V17.8833L12.3003 22.6432C12.0096 22.4201 11.6473 22.2902 11.2612 22.2902C10.3198 22.2902 9.5539 23.0561 9.5539 23.9975C9.5539 24.9251 10.2973 25.6822 11.2195 25.7044L10.8895 26.639H1.84082C1.35885 26.639 0.966785 26.247 0.966785 25.765V8.55991C0.966785 8.29295 0.750418 8.07652 0.483392 8.07652C0.216366 8.07652 0 8.29295 0 8.55991V25.765C0 26.7801 0.825763 27.6058 1.84082 27.6058H10.7392C10.8156 28.3063 11.2962 28.9101 11.9575 29.1435L19.3064 31.7382C19.5581 31.8269 19.8342 31.6951 19.9232 31.4433C20.0121 31.1916 19.88 30.9155 19.6283 30.8266L12.2793 28.2319C11.8525 28.0812 11.5947 27.5457 11.7462 27.1168L19.7109 4.55736C19.8714 4.10291 20.3718 3.86372 20.8261 4.02415L31.4494 7.77475C31.9038 7.93518 32.143 8.43545 31.9825 8.88991L24.0178 31.4494C23.859 31.899 23.3522 32.1415 22.9026 31.9826L21.4577 31.4725C21.2058 31.3836 20.9299 31.5156 20.841 31.7673C20.7521 32.0191 20.8842 32.2952 21.1358 32.3841L22.5807 32.8942C23.5225 33.2266 24.5969 32.7129 24.9294 31.7713L32.8942 9.21172C33.2321 8.25467 32.7284 7.20106 31.7713 6.86314ZM11.2612 24.7381C10.8529 24.7381 10.5207 24.4059 10.5207 23.9975C10.5207 23.5892 10.8529 23.257 11.2612 23.257C11.5526 23.257 11.8127 23.4276 11.9326 23.6847L11.5874 24.6623C11.4866 24.7122 11.3758 24.7381 11.2612 24.7381Z" fill="white" fill-opacity="0.2"/>
<path d="M18.327 17.2672L25.0797 19.6513C25.313 19.7336 25.6132 19.5922 25.6965 19.3565C25.7853 19.1047 25.6533 18.8286 25.4016 18.7397L18.6488 16.3556C18.397 16.2667 18.121 16.3988 18.0321 16.6505C17.9432 16.9022 18.0752 17.1784 18.327 17.2672Z" fill="white" fill-opacity="0.2"/>
<path d="M13.2891 25.7872C12.9126 26.8542 13.7631 28.0632 14.8991 28.0632C15.6215 28.0632 16.2685 27.6053 16.509 26.9239C16.8223 26.0362 16.3551 25.059 15.4675 24.7456C14.5945 24.4374 13.5973 24.9146 13.2891 25.7872ZM15.5974 26.6021C15.4931 26.8977 15.2124 27.0964 14.8991 27.0964C14.4107 27.0964 14.0382 26.5695 14.2007 26.1091C14.3239 25.7603 14.7982 25.5346 15.1457 25.6573C15.5307 25.7932 15.7333 26.2171 15.5974 26.6021Z" fill="white" fill-opacity="0.2"/>
<path d="M24.9852 20.5408C24.128 20.238 23.1099 20.7242 22.8067 21.5824C22.4301 22.6494 23.2808 23.8583 24.4167 23.8583C25.1391 23.8583 25.7862 23.4005 26.0266 22.7192C26.3293 21.8621 25.8444 20.8441 24.9852 20.5408ZM25.115 22.3973C25.0107 22.6929 24.7301 22.8915 24.4168 22.8915C23.9283 22.8915 23.5558 22.3647 23.7184 21.9042C23.8485 21.5358 24.2956 21.3225 24.6633 21.4524C25.0179 21.5776 25.2438 22.0325 25.115 22.3973Z" fill="white" fill-opacity="0.2"/>
<path d="M21.6869 8.83699C22.4094 8.83699 23.0563 8.37919 23.2969 7.69787C23.5995 6.84079 23.1144 5.82284 22.2553 5.51947C21.3983 5.21693 20.38 5.7027 20.077 6.56101C19.6991 7.63142 20.5467 8.83699 21.6869 8.83699ZM20.9887 6.88282C21.1187 6.51454 21.5658 6.30127 21.9335 6.43107C22.2879 6.5563 22.514 7.01114 22.3853 7.376C22.2809 7.67164 22.0002 7.87022 21.6869 7.87022C21.1943 7.87022 20.8248 7.347 20.9887 6.88282Z" fill="white" fill-opacity="0.2"/>
<path d="M18.8896 9.92442C18.5124 10.993 19.3614 12.2004 20.4996 12.2004C21.222 12.2004 21.869 11.7425 22.1095 11.0612C22.4229 10.1735 21.9556 9.1963 21.068 8.88294C20.2108 8.58027 19.1926 9.06598 18.8896 9.92442ZM20.1841 9.83322C20.3692 9.74575 20.5565 9.73286 20.746 9.79448C21.1311 9.93041 21.3338 10.3542 21.1979 10.7393C21.0935 11.0349 20.8129 11.2336 20.4996 11.2336C20.0091 11.2336 19.6384 10.7075 19.8013 10.2462C19.8634 10.0705 20.0029 9.9199 20.1841 9.83322Z" fill="white" fill-opacity="0.2"/>
<path d="M17.7023 13.2878C17.3256 14.3547 18.1762 15.5637 19.3122 15.5637C20.0346 15.5637 20.6816 15.1058 20.9221 14.4245C21.2291 13.5549 20.7521 12.5539 19.8806 12.2462C19.0235 11.9434 18.0053 12.4295 17.7023 13.2878ZM18.9968 13.1966C19.1819 13.1091 19.3692 13.0962 19.5588 13.1579C19.924 13.2868 20.1462 13.7184 20.0106 14.1026C19.9063 14.3983 19.6256 14.5969 19.3123 14.5969C18.8238 14.5969 18.4514 14.0701 18.6139 13.6096C18.676 13.4338 18.8155 13.2833 18.9968 13.1966Z" fill="white" fill-opacity="0.2"/>
<path d="M28.8298 11.3589C29.5522 11.3589 30.1992 10.9011 30.4398 10.2196C30.7532 9.33187 30.2859 8.35472 29.3982 8.04135C28.5254 7.73327 27.528 8.21035 27.2198 9.08296C26.8432 10.15 27.6938 11.3589 28.8298 11.3589ZM28.1315 9.40483C28.2546 9.05608 28.729 8.83044 29.0764 8.95302C29.4615 9.08895 29.664 9.51279 29.5282 9.89776C29.4238 10.1935 29.1431 10.3921 28.8298 10.3921C28.3414 10.3921 27.9689 9.86534 28.1315 9.40483Z" fill="white" fill-opacity="0.2"/>
<path d="M26.0321 12.4463C25.8511 12.9591 25.9357 13.5375 26.2584 13.9936C27.048 15.1098 28.8001 14.8632 29.2521 13.583C29.5654 12.6953 29.0982 11.7182 28.2105 11.4048C27.7946 11.2579 27.3204 11.2865 26.9095 11.483C26.4988 11.6794 26.179 12.0306 26.0321 12.4463ZM27.3267 12.3551C27.5117 12.2676 27.699 12.2547 27.8886 12.3163C28.2737 12.4523 28.4764 12.8761 28.3405 13.2611C28.1387 13.8325 27.3834 13.9097 27.0476 13.4352C26.7807 13.0579 26.9142 12.5524 27.3267 12.3551Z" fill="white" fill-opacity="0.2"/>
<path d="M24.8448 15.8096C24.4682 16.8765 25.3188 18.0856 26.4548 18.0856C27.1772 18.0856 27.8242 17.6278 28.0648 16.9463C28.3781 16.0586 27.9109 15.0814 27.0232 14.768C26.166 14.4654 25.1478 14.9514 24.8448 15.8096ZM26.1394 15.7184C26.3245 15.631 26.5118 15.618 26.7013 15.6797C27.0864 15.8156 27.289 16.2395 27.1532 16.6245C27.0488 16.9201 26.7681 17.1189 26.4548 17.1189C25.9663 17.1189 25.594 16.592 25.7565 16.1315C25.8185 15.9557 25.958 15.8051 26.1394 15.7184Z" fill="white" fill-opacity="0.2"/>
</svg>
