<svg width="22" height="22" viewBox="0 0 22 22" fill="none" xmlns="http://www.w3.org/2000/svg">
<path d="M15.2495 0H5.81222C2.60737 0 0 2.60749 0 5.81235V15.2496C0 18.4546 2.60737 21.062 5.81222 21.062H15.2495C18.4546 21.062 21.062 18.4545 21.062 15.2496V5.81235C21.0621 2.60749 18.4546 0 15.2495 0ZM19.1934 15.2496C19.1934 17.4242 17.4242 19.1933 15.2496 19.1933H5.81222C3.63778 19.1934 1.86872 17.4242 1.86872 15.2496V5.81235C1.86872 3.6379 3.63778 1.86872 5.81222 1.86872H15.2495C17.4241 1.86872 19.1933 3.6379 19.1933 5.81235V15.2496H19.1934Z" fill="white"/>
<path d="M10.5311 5.10413C7.53858 5.10413 5.104 7.5387 5.104 10.5313C5.104 13.5237 7.53858 15.9582 10.5311 15.9582C13.5237 15.9582 15.9583 13.5237 15.9583 10.5313C15.9583 7.5387 13.5237 5.10413 10.5311 5.10413ZM10.5311 14.0893C8.56911 14.0893 6.97273 12.4932 6.97273 10.5311C6.97273 8.56899 8.56899 6.97272 10.5311 6.97272C12.4933 6.97272 14.0896 8.56899 14.0896 10.5311C14.0896 12.4932 12.4932 14.0893 10.5311 14.0893Z" fill="white"/>
<path d="M16.1858 3.51953C15.8258 3.51953 15.4721 3.66529 15.2178 3.92068C14.9623 4.17483 14.8154 4.52864 14.8154 4.88993C14.8154 5.25009 14.9624 5.60378 15.2178 5.85917C15.472 6.11332 15.8258 6.26032 16.1858 6.26032C16.5471 6.26032 16.8997 6.11332 17.1551 5.85917C17.4105 5.60378 17.5562 5.24997 17.5562 4.88993C17.5562 4.52864 17.4105 4.17483 17.1551 3.92068C16.9009 3.66529 16.5471 3.51953 16.1858 3.51953Z" fill="white"/>
</svg>
