<svg width="23" height="23" viewBox="0 0 23 23" fill="none" xmlns="http://www.w3.org/2000/svg">
<path d="M4.71117 7.07532H0.682721C0.305693 7.07532 0 7.38101 0 7.75804V21.4285C0 21.8056 0.305693 22.1113 0.682721 22.1113H4.71122C5.08825 22.1113 5.39394 21.8056 5.39394 21.4285V7.75804C5.39389 7.38101 5.08825 7.07532 4.71117 7.07532ZM4.0285 20.7458H1.36544V8.44076H4.0285V20.7458Z" fill="white"/>
<path d="M21.3274 9.27401C20.147 7.83562 18.4892 7.07532 16.5333 7.07532C15.4744 7.07532 14.5378 7.29804 13.734 7.73926C13.724 7.3709 13.4223 7.07532 13.0515 7.07532H9.02305C8.64603 7.07532 8.34033 7.38101 8.34033 7.75804V21.4285C8.34033 21.8055 8.64603 22.1112 9.02305 22.1112H13.0515C13.4286 22.1112 13.7343 21.8055 13.7343 21.4285V14.4051C13.7343 13.3376 14.6027 12.4692 15.6701 12.4692C16.7375 12.4692 17.606 13.3376 17.606 14.4051V21.4285C17.606 21.8055 17.9117 22.1112 18.2887 22.1112H22.3172C22.6942 22.1112 22.9999 21.8055 22.9999 21.4285V14.4051C22.9999 12.4104 22.4059 10.5881 21.3274 9.27401ZM21.6344 20.7458H18.9714V14.4051C18.9714 12.5847 17.4904 11.1038 15.67 11.1038C13.8497 11.1038 12.3688 12.5847 12.3688 14.4051V20.7458H9.70573V8.44067H12.3688V9.10785C12.3688 9.38524 12.5366 9.6351 12.7935 9.73994C13.0503 9.8447 13.345 9.78379 13.5392 9.58564C14.2835 8.82592 15.2909 8.44067 16.5333 8.44067C20.0571 8.44067 21.6344 11.4362 21.6344 14.405V20.7458H21.6344Z" fill="white"/>
<path d="M2.69697 0C1.20988 0 0 1.20983 0 2.69692C0 4.18402 1.20988 5.39385 2.69697 5.39385C4.18406 5.39385 5.39394 4.18402 5.39394 2.69692C5.39389 1.20983 4.18406 0 2.69697 0ZM2.69697 4.02845C1.96277 4.02845 1.36544 3.43117 1.36544 2.69692C1.36544 1.96268 1.96277 1.3654 2.69697 1.3654C3.43117 1.3654 4.0285 1.96272 4.0285 2.69692C4.0285 3.43113 3.43113 4.02845 2.69697 4.02845Z" fill="white"/>
</svg>
