<svg width="26" height="21" viewBox="0 0 26 21" fill="none" xmlns="http://www.w3.org/2000/svg">
<path d="M16.8841 9.30003L11.2204 6.07057C10.8947 5.88488 10.5098 5.89181 10.1906 6.08891C9.87117 6.28622 9.68066 6.63476 9.68066 7.02163V13.4251C9.68066 13.8101 9.87 14.1581 10.1872 14.3556C10.3529 14.4587 10.5366 14.5105 10.7206 14.5105C10.8892 14.5105 11.0582 14.4671 11.2137 14.3798L16.8777 11.206C17.2139 11.0175 17.4238 10.6532 17.4253 10.2552C17.4267 9.85709 17.2194 9.49122 16.8841 9.30003ZM11.183 12.6196V7.83368L15.416 10.2474L11.183 12.6196Z" fill="white"/>
<path d="M25.8086 5.31567L25.8074 5.3038C25.7854 5.09511 25.5662 3.23881 24.6612 2.29464C23.6153 1.1841 22.4295 1.04919 21.8592 0.984508C21.812 0.979167 21.7687 0.974222 21.73 0.969079L21.6846 0.964331C18.2474 0.715084 13.0564 0.68106 13.0045 0.680862L12.9999 0.680664L12.9953 0.680862C12.9434 0.68106 7.75241 0.715084 4.28424 0.964331L4.23842 0.969079C4.20152 0.974024 4.16086 0.978574 4.11662 0.983717C3.55288 1.0486 2.37976 1.18371 1.33082 2.3344C0.46893 3.26848 0.219786 5.08502 0.194197 5.28916L0.191222 5.31567C0.183486 5.40251 0 7.46988 0 9.54535V11.4855C0 13.561 0.183486 15.6284 0.191222 15.7154L0.19261 15.7285C0.214628 15.9338 0.433621 17.7561 1.33439 18.7006C2.31787 19.774 3.5614 19.916 4.23028 19.9924C4.33601 20.0044 4.42706 20.0147 4.48915 20.0256L4.54925 20.0339C6.53387 20.2222 12.7563 20.315 13.0201 20.3188L13.0281 20.319L13.036 20.3188C13.088 20.3186 18.2787 20.2845 21.716 20.0353L21.7614 20.0305C21.8048 20.0248 21.8536 20.0197 21.9072 20.0141C22.4678 19.9548 23.6345 19.8315 24.669 18.6965C25.5309 17.7622 25.7802 15.9457 25.8056 15.7417L25.8086 15.7152C25.8163 15.6282 26 13.561 26 11.4855V9.54535C25.9998 7.46988 25.8163 5.40271 25.8086 5.31567ZM24.4762 11.4855C24.4762 13.4065 24.308 15.3849 24.2921 15.5665C24.2274 16.0667 23.9646 17.216 23.5447 17.6712C22.8972 18.3816 22.2321 18.452 21.7465 18.5032C21.6878 18.5093 21.6334 18.5153 21.5842 18.5214C18.2597 18.7612 13.2647 18.798 13.0346 18.7993C12.7765 18.7956 6.64515 18.702 4.72103 18.5238C4.62245 18.5078 4.51593 18.4955 4.40365 18.4828C3.83415 18.4178 3.05459 18.3287 2.45514 17.6712L2.44105 17.6562C2.02846 17.2275 1.77316 16.1528 1.7083 15.5724C1.6962 15.4351 1.52362 13.4334 1.52362 11.4855V9.54535C1.52362 7.62655 1.69144 5.65037 1.7077 5.46502C1.78487 4.87573 2.05266 3.79605 2.45514 3.35967C3.12243 2.62776 3.82602 2.54665 4.29138 2.49305C4.33581 2.4879 4.37727 2.48316 4.41555 2.47821C7.78851 2.23727 12.8194 2.20147 12.9999 2.20008C13.1804 2.20127 18.2095 2.23727 21.5525 2.47821C21.5936 2.48335 21.6384 2.4885 21.6866 2.49404C22.1653 2.54843 22.8887 2.63073 23.5526 3.33693L23.5588 3.34345C23.9713 3.77212 24.2266 4.86564 24.2915 5.4577C24.303 5.58727 24.4762 7.59331 24.4762 9.54535V11.4855Z" fill="white"/>
</svg>
